<svg xmlns="http://www.w3.org/2000/svg" enable-background="new 0 0 68 68" viewBox="0 0 68 68"><path d="M41.2 64h-.3c-3.8-.1-6.8-.3-9.4-.6C26.2 62.7 19 60.7 16.4 57c-.3-.4-.2-1.1.2-1.4 0 0 0 0 0 0 .4-.3 1.1-.2 1.4.2 2.5 3.4 9.8 5.1 13.8 5.6 2.5.3 5.5.5 9.2.6 2.7.1 5.3-1 7.2-2.9 1.9-1.9 3-4.5 3-7.2V32.8c0-.6.4-1 1-1s1 .4 1 1v19.1C53.3 58.5 47.9 64 41.2 64zM43.7 23.8c0 .5-.5 1-1 1h-6.2c-.5-.1-.8-.6-.7-1.1 0-.1 0-.1 0-.2l.2-.7 2.3-8.8c1-2.9-.8-6-2.7-7.9C35.5 6 35.4 6 35.3 6c-.2 0-.3.1-.4.2l-2.6 7.4c-1.2 3.4-3.7 6.1-7 7.6-1.8.8-5.6 3.3-7.3 6.8-.2.3-.5.6-.9.6-.1 0-.3 0-.4-.1-.5-.2-.7-.8-.5-1.3 1.9-4 6.1-6.8 8.2-7.8 2.8-1.3 5-3.6 6-6.5l2.7-7.5C33.5 4.6 34.3 4 35.3 4c.6 0 1.3.2 1.7.7 2.4 2.4 4.5 6.2 3.2 9.9L38 22.8h4.6C43.2 22.8 43.7 23.2 43.7 23.8z"/><path d="M13.6 59.9h-7c-2.5 0-4.6-2-4.6-4.6 0 0 0 0 0 0v-27c0-2.5 2.1-4.6 4.6-4.6h7c2.5 0 4.6 2 4.6 4.6v27C18.2 57.9 16.1 59.9 13.6 59.9zM6.6 25.8c-1.4 0-2.6 1.1-2.6 2.6 0 0 0 0 0 0v27c0 1.4 1.2 2.6 2.6 2.6h7c1.4 0 2.6-1.2 2.6-2.6v-27c0-1.4-1.2-2.6-2.6-2.6L6.6 25.8zM53.7 33.8c-6.8 0-12.3-5.5-12.3-12.3 0-6.8 5.5-12.3 12.3-12.3 6.8 0 12.3 5.5 12.3 12.3l0 0C66 28.3 60.5 33.8 53.7 33.8zM53.7 11.3c-5.7 0-10.3 4.6-10.3 10.3S48 31.8 53.7 31.8 64 27.2 64 21.6c0 0 0 0 0 0C64 15.9 59.4 11.3 53.7 11.3z"/><path d="M60.2 25.5c0 .2-.1.5-.3.7-.2.2-.4.2-.7.2-.1 0-.3 0-.4-.1-.1-.1-.2-.2-.3-.3l-1.8-2.5-.6.5v1.4c0 .2-.1.5-.3.6-.4.3-.9.3-1.3 0l0 0c-.2-.2-.3-.4-.3-.6v-7.8c0-.2.1-.5.3-.6.4-.4.9-.4 1.3 0 .2.2.3.4.3.7v4l2.2-2.1c.2-.2.4-.2.6-.2.3 0 .5.1.7.3.1.2.2.4.2.6 0 .3-.1.5-.3.7L58 22.3l2 2.6C60.1 25.1 60.2 25.3 60.2 25.5zM52.6 24.8c.2.2.3.4.3.6 0 .5-.4.9-.9.9 0 0 0 0 0 0h-3.7c-.5 0-.9-.4-.9-.9 0 0 0 0 0 0 0-.2.1-.5.2-.6.2-.2.4-.3.6-.3h1.1v-5.1l-.7.3c-.3.2-.8.2-1.1-.1-.2-.2-.3-.4-.2-.6 0-.4.2-.7.5-.8l1.6-.9c.2-.1.3-.1.5-.1h.2c.3 0 .5.1.7.3.2.2.3.4.3.7v6.4h.8C52.2 24.5 52.4 24.6 52.6 24.8z"/></svg>