<svg width="128" height="128" viewBox="0 0 128 128" fill="none" xmlns="http://www.w3.org/2000/svg">
<path d="M111.16 25.2298L74 3.76982C70.9596 2.01446 67.5107 1.09033 64 1.09033C60.4892 1.09033 57.0403 2.01446 54 3.76982L16.84 25.2298C13.7997 26.9851 11.2749 29.5098 9.51958 32.5501C7.76422 35.5904 6.84006 39.0392 6.83997 42.5498V85.4498C6.84006 88.9605 7.76422 92.4093 9.51958 95.4495C11.2749 98.4898 13.7997 101.014 16.84 102.77L54 124.23C57.0403 125.985 60.4892 126.909 64 126.909C67.5107 126.909 70.9596 125.985 74 124.23L111.16 102.78C114.2 101.024 116.725 98.4998 118.48 95.4595C120.236 92.4192 121.16 88.9705 121.16 85.4598V42.5498C121.16 39.0392 120.236 35.5904 118.48 32.5501C116.725 29.5098 114.2 26.9851 111.16 25.2298V25.2298ZM98.62 74.0798C98.13 80.8298 96.9 87.7998 88.27 88.3098C72.0998 89.2317 55.8902 89.2317 39.72 88.3098C31.09 87.8098 29.86 80.8298 29.37 74.0798C28.8673 67.3692 28.8673 60.6304 29.37 53.9198C29.86 47.1698 31.09 40.1998 39.72 39.6898C55.8902 38.768 72.0998 38.768 88.27 39.6898C96.9 40.1898 98.13 47.1698 98.62 53.9198C99.1224 60.6304 99.1224 67.3692 98.62 74.0798V74.0798Z" fill="#0A5C4A"/>
<path d="M54 74L73 64L54 54V74Z" fill="#F6FEFC"/>
</svg>
