<svg xmlns="http://www.w3.org/2000/svg" data-name="Layer 1" viewBox="0 0 64 64"><path d="M52.24023,13.97983H48.5V10.43a5.36342,5.36342,0,0,0-5.25977-5.4502H40.40967a6.00065,6.00065,0,0,0-11.81934,0H11.75977A5.36343,5.36343,0,0,0,6.5,10.43V49.52964a5.36342,5.36342,0,0,0,5.25977,5.45019H15.5v3.54981a5.36342,5.36342,0,0,0,5.25977,5.45019H52.24023A5.36341,5.36341,0,0,0,57.5,58.52964V19.43A5.36342,5.36342,0,0,0,52.24023,13.97983ZM34.5,3.97983a2.00021,2.00021,0,0,1-.00009,4A2.00021,2.00021,0,0,1,34.5,3.97983Zm-22.74023,47A1.36641,1.36641,0,0,1,10.5,49.52964V10.43a1.36641,1.36641,0,0,1,1.25977-1.4502H28.67188l-3.58594,3.58594a2,2,0,0,0,2.82818,2.82807l4.00544-4.00544a6.0287,6.0287,0,0,0,7.76863-2.40865l3.552.00008A1.36641,1.36641,0,0,1,44.5,10.43V49.52964a1.36641,1.36641,0,0,1-1.25977,1.45019ZM53.5,58.52964a1.36641,1.36641,0,0,1-1.25977,1.45019H20.75977A1.36641,1.36641,0,0,1,19.5,58.52964V54.97983H43.24023A5.36341,5.36341,0,0,0,48.5,49.52964V17.97983h3.74023A1.36641,1.36641,0,0,1,53.5,19.43Z"/><path d="M38.5 22.97983h-22a2.00021 2.00021 0 0 0 .00009 4H38.5A2.00021 2.00021 0 0 0 38.5 22.97983zM38.5 32.97983h-22a2.00021 2.00021 0 0 0 .00009 4H38.5A2.00021 2.00021 0 0 0 38.5 32.97983zM38.5 41.97983a2.00019 2.00019 0 0 0 .00008 4A2.00019 2.00019 0 0 0 38.5 41.97983zM30.5 41.97983a2.00021 2.00021 0 0 0 .00009 4A2.00021 2.00021 0 0 0 30.5 41.97983z"/></svg>