<svg width="25" height="25" viewBox="0 0 25 25" fill="currentColor" xmlns="http://www.w3.org/2000/svg">
<path d="M7.9668 22.7363H4.9668C4.43636 22.7363 3.92766 22.5256 3.55258 22.1505C3.17751 21.7755 2.9668 21.2668 2.9668 20.7363V13.7363C2.9668 13.2059 3.17751 12.6972 3.55258 12.3221C3.92766 11.947 4.43636 11.7363 4.9668 11.7363H7.9668M14.9668 9.73633V5.73633C14.9668 4.94068 14.6507 4.17762 14.0881 3.61501C13.5255 3.0524 12.7624 2.73633 11.9668 2.73633L7.9668 11.7363V22.7363H19.2468C19.7291 22.7418 20.1972 22.5727 20.5647 22.2603C20.9322 21.9479 21.1745 21.5132 21.2468 21.0363L22.6268 12.0363C22.6703 11.7497 22.651 11.457 22.5701 11.1786C22.4893 10.9001 22.3489 10.6426 22.1587 10.4238C21.9684 10.2051 21.7329 10.0303 21.4684 9.91155C21.2039 9.79283 20.9167 9.73305 20.6268 9.73633H14.9668Z" stroke="black" stroke-width="2" stroke-linecap="round" stroke-linejoin="round"/>
</svg>
