<svg width="120" height="120" viewBox="0 0 120 120" fill="currentColor" xmlns="http://www.w3.org/2000/svg">
<path fill-rule="evenodd" clip-rule="evenodd" d="M60.0188 4.99023C29.7028 4.99023 4.98051 29.6736 4.98047 59.9895C4.98039 90.3057 29.7027 115.018 60.0188 115.018C90.335 115.018 115.008 90.3057 115.008 59.9895C115.008 29.6736 90.3349 4.99023 60.0188 4.99023ZM60.0188 14.9901C84.9305 14.9901 105.008 35.0779 105.009 59.9895C105.009 84.9012 84.9306 105.018 60.0188 105.018C35.1071 105.018 14.9803 84.9012 14.9803 59.9895C14.9804 35.0779 35.1071 14.9901 60.0188 14.9901ZM59.9407 24.9216C59.28 24.928 58.627 25.0653 58.0196 25.3256C57.4123 25.5858 56.8625 25.9639 56.4021 26.4379C55.9417 26.9119 55.5798 27.4725 55.3374 28.0872C55.0949 28.7019 54.9767 29.3586 54.9896 30.0192V59.9895C54.9923 60.6475 55.1248 61.2984 55.3795 61.905C55.6342 62.5116 56.0061 63.062 56.474 63.5247L76.4737 83.5342C76.9358 84.0126 77.4887 84.394 78.1 84.6562C78.7113 84.9183 79.3688 85.0558 80.0339 85.0606C80.6991 85.0655 81.3585 84.9376 81.9736 84.6845C82.5887 84.4314 83.1471 84.058 83.6161 83.5864C84.0851 83.1148 84.4554 82.5543 84.7051 81.9378C84.9548 81.3213 85.0791 80.6612 85.0705 79.9961C85.062 79.3311 84.9208 78.6743 84.6554 78.0645C84.3899 77.4546 84.0054 76.9038 83.5244 76.4444L64.9992 57.9193V30.0192C65.0123 29.3495 64.8907 28.684 64.6416 28.0622C64.3925 27.4404 64.021 26.875 63.5492 26.3995C63.0773 25.924 62.5148 25.5482 61.8949 25.2943C61.2751 25.0405 60.6105 24.9137 59.9407 24.9216V24.9216Z"/>
</svg>
