<svg xmlns="http://www.w3.org/2000/svg" width="64" height="64" data-name="Layer 1" viewBox="0 0 64 64" fill="currentColor"><path d="M48,46H12a6.0066,6.0066,0,0,1-6-6V24a6.0066,6.0066,0,0,1,6-6H44a1,1,0,0,1,0,2H12a4.0042,4.0042,0,0,0-4,4V40a4.0042,4.0042,0,0,0,4,4H48a4.0042,4.0042,0,0,0,4-4V28a1,1,0,0,1,2,0V40A6.0066,6.0066,0,0,1,48,46Z"/><path d="M36 32a1.0137 1.0137 0 0 1-.4.8l-8 6a.99.99 0 0 1-1.05.09A.988.988 0 0 1 26 38V26a1.0022 1.0022 0 0 1 1.6-.8l8 6A1.0137 1.0137 0 0 1 36 32zM59 19a1.0029 1.0029 0 0 1-1 1 3.9989 3.9989 0 0 0-4 4 1 1 0 0 1-2 0 3.9989 3.9989 0 0 0-4-4 1 1 0 0 1 0-2 3.9989 3.9989 0 0 0 4-4 1 1 0 0 1 2 0 3.9989 3.9989 0 0 0 4 4A1.0029 1.0029 0 0 1 59 19z"/><circle cx="47" cy="10" r="1"/><circle cx="59" cy="30" r="1"/><circle cx="10" cy="53" r="1"/><circle cx="27" cy="53" r="4"/><circle cx="27" cy="53" r="4"/><path d="M21.09 52H14a1 1 0 0 0 0 2h7.09M32.91 54H52a1 1 0 0 0 0-2H32.91"/></svg>