<svg xmlns="http://www.w3.org/2000/svg" data-name="Layer 1" viewBox="0 0 512 512"><g data-name="&lt;Group&gt;"><path d="M480.229,225.6a489.151,489.151,0,0,0-51.458-51.889C388.79,139.146,326.361,97.94,256,97.94c-70.465,0-132.841,41.012-172.759,75.417a479.119,479.119,0,0,0-51.48,51.869c-6.734,7.929-11.395,13.988-14.12,17.673-5.665,7.665-6.735,9.747-6.735,13.1,0,3.526,1.2,5.454,6.778,12.893,2.777,3.7,7.475,9.742,14.087,17.5a489.151,489.151,0,0,0,51.458,51.889C123.21,372.854,185.639,414.06,256,414.06c70.465,0,132.841-41.012,172.759-75.416a479.123,479.123,0,0,0,51.48-51.868c6.735-7.93,11.4-13.989,14.12-17.675,5.665-7.665,6.735-9.747,6.735-13.1,0-3.526-1.2-5.454-6.778-12.893C491.539,239.406,486.841,233.365,480.229,225.6ZM411.95,326.689C345.8,382.371,290.63,394.06,256,394.06S166.13,382.269,99.749,326.1c-34.153-28.9-58.313-58.733-66.827-70.21,8.249-11.3,32.275-41.242,67.127-70.577C166.2,129.629,221.37,117.94,256,117.94s89.87,11.791,156.251,67.961c34.155,28.9,58.315,58.735,66.827,70.211C470.83,267.407,446.806,297.352,411.95,326.689Z" data-name="&lt;Compound Path&gt;"/><path d="M256,137.048A118.952,118.952,0,1,0,374.951,256,119.087,119.087,0,0,0,256,137.048Zm0,217.9A98.952,98.952,0,1,1,354.951,256,99.063,99.063,0,0,1,256,354.952Z" data-name="&lt;Compound Path&gt;"/><path d="M309.041,247.4l-79.587-47.144a10.332,10.332,0,0,0-10.227-.085A10.172,10.172,0,0,0,214,208.856v94.289a10.172,10.172,0,0,0,5.227,8.688,10.327,10.327,0,0,0,5.041,1.312,10.149,10.149,0,0,0,5.141-1.4l79.61-47.144a10,10,0,0,0,.022-17.207ZM234,285.6V226.4L283.966,256Z" data-name="&lt;Compound Path&gt;"/></g></svg>